<?xml version="1.0" encoding="UTF-8" standalone="no"?>
<svg
   xmlns:dc="http://purl.org/dc/elements/1.1/"
   xmlns:cc="http://creativecommons.org/ns#"
   xmlns:rdf="http://www.w3.org/1999/02/22-rdf-syntax-ns#"
   xmlns:svg="http://www.w3.org/2000/svg"
   xmlns="http://www.w3.org/2000/svg"
   xmlns:sodipodi="http://sodipodi.sourceforge.net/DTD/sodipodi-0.dtd"
   xmlns:inkscape="http://www.inkscape.org/namespaces/inkscape"
   id="Layer_1"
   data-name="Layer 1"
   viewBox="0 0 512 512"
   width="512"
   height="512"
   version="1.1"
   sodipodi:docname="toolkit-light.svg"
   inkscape:version="1.0.1 (3bc2e813f5, 2020-09-07)">
  <metadata
     id="metadata54">
    <rdf:RDF>
      <cc:Work
         rdf:about="">
        <dc:format>image/svg+xml</dc:format>
        <dc:type
           rdf:resource="http://purl.org/dc/dcmitype/StillImage" />
      </cc:Work>
    </rdf:RDF>
  </metadata>
  <defs
     id="defs52" />
  <sodipodi:namedview
     pagecolor="#ffffff"
     bordercolor="#666666"
     borderopacity="1"
     objecttolerance="10"
     gridtolerance="10"
     guidetolerance="10"
     inkscape:pageopacity="0"
     inkscape:pageshadow="2"
     inkscape:window-width="1920"
     inkscape:window-height="1018"
     id="namedview50"
     showgrid="false"
     inkscape:zoom="1.1739077"
     inkscape:cx="229.98873"
     inkscape:cy="258.5524"
     inkscape:window-x="-6"
     inkscape:window-y="-6"
     inkscape:window-maximized="1"
     inkscape:current-layer="Layer_1" />
  <title
     id="title33">Mechanic Tools</title>
  <path
     style="display:inline;fill:#ffffff;stroke-width:0.851856;stroke-miterlimit:4;stroke-dasharray:none"
     d="m 151.34681,292.95605 c -8.66543,0.49605 -17.69953,-0.68175 -26.12801,0.89013 -5.02081,16.14825 -9.41514,32.59741 -13.98907,48.9035 0.31556,39.53494 0.0144,79.14757 0.71543,118.63422 4.18925,9.77877 12.33418,19.35033 23.75379,19.72412 12.15039,0.26753 24.49412,0.95048 36.54162,-0.77698 10.92482,-3.97652 19.89411,-14.90308 18.95878,-26.9466 0.76454,-36.72302 0.64359,-73.47602 0.77865,-110.19718 -4.96249,-16.49907 -9.09713,-33.43602 -14.57724,-49.66144 -5.23901,-1.88073 -11.83797,-0.13066 -17.58131,-0.64695 -2.82421,0.0257 -5.64842,0.0515 -8.47264,0.0772 z m 14.70616,65.59788 c 6.30382,0.2557 4.92148,7.6711 5.28354,11.97034 0.48692,24.41864 1.17681,49.06051 -0.41698,73.43152 -1.34841,4.61496 -9.17822,4.9597 -9.61499,-0.35438 -1.61263,-21.76727 -0.29807,-44.1296 -0.48176,-66.13349 0.57082,-5.8394 -0.77938,-12.08872 1.30367,-17.54969 1.03277,-0.9982 2.50842,-1.44859 3.92652,-1.3643 z m -28.7884,0.008 c 6.48731,0.50346 4.56611,8.38881 5.13983,12.81331 0.4442,24.13566 1.14266,48.49285 -0.44797,72.58023 -1.43835,4.99361 -10.39391,4.8257 -9.83793,-1.15632 -1.27933,-24.74295 -0.50133,-49.69306 -0.46425,-74.38556 0.16033,-4.03428 -0.53154,-10.19686 5.61032,-9.85166 z"
     id="path897" />
  <path
     style="fill:#ffffff;stroke-width:0.851856;stroke-miterlimit:4;stroke-dasharray:none"
     d="m 139.96822,265.50035 c -8.48288,0.62968 -17.4834,-1.1646 -25.68711,1.41421 -6.05875,3.15598 -4.35757,13.66606 2.72693,13.97908 23.17267,1.1263 46.41553,0.24131 69.61425,0.52909 4.74393,-1.78977 8.48168,-8.63365 4.00971,-12.71462 -4.23721,-5.86844 -12.38411,-2.18698 -18.49126,-3.21109 -10.72417,1.3e-4 -21.44835,-0.001 -32.17252,0.003 z"
     id="path895" />
  <path
     style="fill:#ffffff;stroke-width:0.851856;stroke-miterlimit:4;stroke-dasharray:none"
     d="m 150.41177,31.248347 c -3.19594,-0.490778 -6.63732,0.653681 -6.49373,4.445196 -3.21921,13.638916 -7.76452,27.144393 -10.26554,40.832931 3.09104,7.776785 8.08054,15.133127 9.98783,23.171473 0.004,51.105793 0.009,102.211593 0.0148,153.317393 2.89599,3.99746 10.19966,1.43584 14.70533,1.65626 2.71968,-4.00641 0.50003,-10.36279 1.22038,-15.28596 0,-47.36728 0,-94.73456 0,-142.101838 2.93407,-7.430963 7.71997,-14.447292 9.32383,-22.266377 -3.48297,-14.349198 -6.82904,-28.936041 -11.19226,-42.937292 -1.65173,-1.714276 -5.05494,-0.482441 -7.30066,-0.831786 z"
     id="path893" />
  <path
     style="fill:#ffffff;stroke-width:0.851856;stroke-miterlimit:4;stroke-dasharray:none"
     d="m 361.99309,38.091477 c -1.06127,14.107867 0.88683,28.658039 -1.34434,42.594449 -10.0727,9.239121 -22.40897,15.750585 -33.57222,23.603144 -4.30408,2.00565 -8.3518,6.84038 -13.4013,6.26837 -15.06761,-9.64199 -29.90414,-19.713779 -44.02297,-30.693463 -2.36335,-4.270005 -0.38105,-10.43064 -1.03387,-15.444834 -0.1894,-8.629706 0.38444,-17.372399 -0.75203,-25.931686 -3.3389,-3.413112 -6.86744,2.543237 -9.63662,4.244305 -17.06749,14.524395 -28.17763,36.183599 -29.52545,58.576728 -1.12511,17.01357 2.24996,34.35579 11.08922,49.06076 9.99056,17.80493 26.45305,31.42749 45.2231,39.15788 6.05325,2.87953 2.5277,10.54103 3.45401,15.81756 0.21009,82.21316 -0.4565,164.43383 0.43092,246.64218 -0.67661,8.60685 2.63147,17.2842 9.52515,22.64405 11.2493,10.11413 30.6718,6.96772 38.47658,-5.89145 3.43992,-4.99502 5.57573,-10.65984 4.56172,-16.81249 0.35015,-84.39715 -0.17324,-168.88647 0.87552,-253.22743 0.39118,-3.54987 -0.93748,-8.61208 3.76948,-9.66385 21.63838,-9.3779 40.28169,-26.50417 48.98637,-48.69404 12.44737,-29.88525 6.10936,-66.486213 -16.08113,-90.157825 -4.68815,-4.870366 -9.2978,-10.678829 -15.72606,-13.052359 l -0.68452,0.507027 z M 315.73333,321.45995 c 5.32119,0.66075 12.67269,-2.25167 15.58629,3.60707 2.06637,3.99921 -2.55622,8.88632 -6.70447,7.38434 -8.23226,-0.50773 -17.22926,1.66535 -24.92898,-1.3731 -3.64292,-3.53599 -0.339,-10.85353 5.0827,-9.30283 3.67088,-0.23985 7.21221,-0.30327 10.96446,-0.31548 z m -0.86849,40.03722 c 5.47627,0.86385 13.06774,-2.48089 16.30838,3.35251 2.65129,3.95532 -2.31706,8.29699 -6.36563,7.05942 -8.29016,-0.36071 -17.00365,1.07764 -25.05487,-0.85851 -3.99822,-3.75706 0.13736,-11.08301 5.60791,-9.46627 3.16677,-0.0982 6.33631,-0.0755 9.50421,-0.0872 z m -4.3641,39.21031 c 6.43375,0.39081 13.25197,-0.79707 19.34644,1.07646 3.27453,2.92166 2.02428,10.07004 -3.27931,9.12917 -8.52275,0.0802 -17.63403,0.98723 -26.16628,-0.47252 -4.49423,-3.05077 -1.50897,-10.92407 4.10954,-9.62995 1.99532,-0.0911 3.99285,-0.0817 5.98961,-0.10316 z"
     id="path891" />
  <path
     d="M303.386,334h23.025a7,7,0,1,0,0-14H303.386a7,7,0,1,0,0,14Z"
     id="path35"
     style="stroke-width:1;stroke-miterlimit:4;stroke-dasharray:none" />
  <path
     d="M303.386,374h23.025a7,7,0,1,0,0-14H303.386a7,7,0,1,0,0,14Z"
     id="path37"
     style="stroke-width:1;stroke-miterlimit:4;stroke-dasharray:none" />
  <path
     d="M303.386,413h23.025a7,7,0,1,0,0-14H303.386a7,7,0,1,0,0,14Z"
     id="path39"
     style="stroke-width:1;stroke-miterlimit:4;stroke-dasharray:none" />
  <path
     d="M166,356.851a7,7,0,0,0-7,7V442.1a7,7,0,0,0,14,0V363.851A7,7,0,0,0,166,356.851Z"
     id="path41"
     style="stroke-width:1;stroke-miterlimit:4;stroke-dasharray:none" />
  <path
     d="M137,356.851a7,7,0,0,0-7,7V442.1a7,7,0,0,0,14,0V363.851A7,7,0,0,0,137,356.851Z"
     id="path43"
     style="stroke-width:1;stroke-miterlimit:4;stroke-dasharray:none" />
  <path
     d="M204.838,273.372A20.379,20.379,0,0,0,184.575,253H172V100.493l9.771-20.853a6.991,6.991,0,0,0,.372-4.785l-13.3-50.618A7.057,7.057,0,0,0,162.029,19h-21.22a7.009,7.009,0,0,0-6.771,5.237L120.775,74.85a6.991,6.991,0,0,0,.373,4.787L131,100.493V253H118.263a20.359,20.359,0,0,0-6.022,39.776L99.13,338.9a7.105,7.105,0,0,0-.13,1.962V453.883C99,475.744,116.5,494,138.36,494h26.118C186.338,494,204,475.744,204,453.883V340.865a6.942,6.942,0,0,0-.211-1.934l-13.223-46.155A20.4,20.4,0,0,0,204.838,273.372ZM146.211,33h10.416l11.245,42.918L158.521,95.9A6.889,6.889,0,0,0,158,98.911V253H145V98.911a6.93,6.93,0,0,0-.6-3.01l-9.471-19.983ZM190,453.883C190,468.024,178.619,480,164.478,480H138.36C124.219,480,113,468.024,113,453.883V341.852L126.546,294h49.746L190,341.852ZM184.575,280H118.263a6.5,6.5,0,0,1,0-13h66.312a6.5,6.5,0,0,1,0,13Z"
     id="path45"
     style="stroke-width:1;stroke-miterlimit:4;stroke-dasharray:none" />
  <path
     d="M315,493.529a39.078,39.078,0,0,0,39-39.235V199.019a99.656,99.656,0,0,0,59.933-91.026A98.61,98.61,0,0,0,359.07,19.272,6.957,6.957,0,0,0,349,25.535V74.606L315.257,97.068,280.8,72.969l.159-47.465a7.012,7.012,0,0,0-10.127-6.3,98.45,98.45,0,0,0-54.869,88.79A99.75,99.75,0,0,0,276,199.019V454.294A39.078,39.078,0,0,0,315,493.529ZM229.8,107.993a84.6,84.6,0,0,1,37.121-70.322l-.133,38.911a7,7,0,0,0,2.987,5.759l41.363,28.937a6.994,6.994,0,0,0,7.892.091l40.841-27.187A7.012,7.012,0,0,0,363,78.355V37.739a85.133,85.133,0,0,1-18.375,150A7.069,7.069,0,0,0,340,194.292v260a25,25,0,1,1-50,0v-260a7.158,7.158,0,0,0-4.72-6.558A85.638,85.638,0,0,1,229.8,107.993Z"
     id="path47"
     style="stroke-width:1;stroke-miterlimit:4;stroke-dasharray:none" />
</svg>
