<?xml version="1.0"?>
<svg xmlns="http://www.w3.org/2000/svg" id="Layer_1" data-name="Layer 1" viewBox="0 0 512 512" width="512" height="512"><title>Mechanic Tools</title><path d="M355.98,25.53a92.14,92.14,0,0,1-8.85,168.76v260a32.235,32.235,0,1,1-64.47,0v-260a92.139,92.139,0,0,1-8.71-168.82l.01.01-.18,51.13,41.37,28.93,40.83-27.18Z" style="fill:#e48e66"/><path d="M197.12,340.87V453.88a32.644,32.644,0,0,1-32.64,32.65H138.36a32.653,32.653,0,0,1-32.65-32.65V340.87l15.57-54.13h60.28Z" style="fill:#e48e66"/><path d="M164.68,260.22h19.9a13.26,13.26,0,1,1,0,26.52H118.26a13.26,13.26,0,0,1,0-26.52h46.42Z" style="fill:#6fe3ff"/><polygon points="162.03 26.02 175.29 76.63 164.68 98.91 164.68 260.22 138.16 260.22 138.16 98.91 127.55 76.63 140.81 26.02 162.03 26.02" style="fill:#f8ec7d"/><path d="M303.39,334h23.02a7,7,0,1,0,0-14H303.39a7,7,0,0,0,0,14Z" style="fill:#63316d"/><path d="M303.39,374h23.02a7,7,0,1,0,0-14H303.39a7,7,0,0,0,0,14Z" style="fill:#63316d"/><path d="M303.39,413h23.02a7,7,0,1,0,0-14H303.39a7,7,0,0,0,0,14Z" style="fill:#63316d"/><path d="M166,356.85a7,7,0,0,0-7,7V442.1a7,7,0,0,0,14,0V363.85A7,7,0,0,0,166,356.85Z" style="fill:#63316d"/><path d="M137,356.85a7,7,0,0,0-7,7V442.1a7,7,0,0,0,14,0V363.85A7,7,0,0,0,137,356.85Z" style="fill:#63316d"/><path d="M204.84,273.48A20.437,20.437,0,0,0,184.58,253H172V100.492l9.77-20.852a6.984,6.984,0,0,0,.371-4.785l-13.3-50.62A7.055,7.055,0,0,0,162.03,19H140.81a7.008,7.008,0,0,0-6.771,5.235L120.778,74.851a6.987,6.987,0,0,0,.372,4.786L131,100.492V253H118.26a20.373,20.373,0,0,0-6.018,39.805L99.128,338.922A7,7,0,0,0,99,340.87V453.88C99,475.743,116.5,494,138.36,494h26.12c21.857,0,39.52-18.257,39.52-40.12V340.87a6.969,6.969,0,0,0-.212-1.933l-13.223-46.108A20.325,20.325,0,0,0,204.84,273.48ZM144.4,95.9l-9.47-19.98L146.212,33h10.415L167.87,75.92,158.52,95.9A6.9,6.9,0,0,0,158,98.91V253H145V98.91A6.928,6.928,0,0,0,144.4,95.9ZM190,453.88c0,14.143-11.382,26.12-25.52,26.12H138.36C124.216,480,113,468.023,113,453.88V341.856L126.548,294h49.743L190,341.856ZM184.58,280H118.26a6.353,6.353,0,0,1-4.43-1.959,6.637,6.637,0,0,1-1.83-4.605A6.419,6.419,0,0,1,118.26,267h66.32a6.333,6.333,0,0,1,4.43,1.939,6.662,6.662,0,0,1,1.83,4.616A6.428,6.428,0,0,1,184.58,280Z" style="fill:#63316d"/><path d="M287.324,482.044a38.678,38.678,0,0,0,27.6,11.486A39.152,39.152,0,0,0,354,454.29V199.017a99.661,99.661,0,0,0,59.935-91.027,98.625,98.625,0,0,0-54.859-88.721A6.959,6.959,0,0,0,349,25.53V74.611L315.257,97.066,280.8,72.973l.165-47.468a7.014,7.014,0,0,0-10.128-6.3A98.452,98.452,0,0,0,215.97,107.99,99.744,99.744,0,0,0,276,199.017V454.29A38.831,38.831,0,0,0,287.324,482.044ZM229.8,107.99a84.6,84.6,0,0,1,37.117-70.319l-.137,38.915a7,7,0,0,0,2.988,5.761l41.37,28.929a7,7,0,0,0,7.891.091l40.84-27.179A7.011,7.011,0,0,0,363,78.36V37.737a85.133,85.133,0,0,1-18.379,150A7.065,7.065,0,0,0,340,194.29v260a25.208,25.208,0,0,1-25.165,25.24A24.888,24.888,0,0,1,290,454.29v-260a7.159,7.159,0,0,0-4.721-6.558A85.637,85.637,0,0,1,229.8,107.99Z" style="fill:#63316d"/></svg>
